<svg width="34" height="34" viewBox="0 0 34 34" fill="none" xmlns="http://www.w3.org/2000/svg">
    <g clip-path="url(#clip0_132_119)">
        <path
            d="M13.0671 0.129309C10.746 0.749987 8.12108 2.52798 5.39268 5.32103C2.89703 7.8684 1.3324 10.2929 0.776373 12.4718C0.659995 12.9244 0.640599 13.1442 0.659995 13.8295C0.692322 14.7864 0.834561 15.2842 1.33886 16.1118C2.68367 18.3488 8.08229 23.7669 10.4163 25.228C12.149 26.3207 13.9399 26.2366 16.3903 24.963C19.7718 23.1979 23.845 19.1247 25.61 15.7433C26.8837 13.2929 26.9678 11.502 25.8751 9.76924C24.4139 7.43522 18.9959 2.0366 16.7589 0.691799C15.899 0.174566 15.4399 0.0387917 14.4184 0.0193958C13.7072 0.00646591 13.455 0.0258617 13.0671 0.129309ZM13.6102 2.19824C13.843 2.41806 13.8688 2.65728 13.7072 3.13573C13.3775 4.12493 12.3947 5.74129 11.2762 7.14428C10.5262 8.0753 8.3603 10.2477 7.5004 10.9265C6.57585 11.6636 5.60603 12.2907 4.7332 12.7175C3.86684 13.1442 3.7246 13.2929 3.76339 13.7196C3.80219 14.1011 3.95736 14.3403 4.2483 14.4631C4.46166 14.5472 4.51338 14.5472 4.9401 14.4114C7.86246 13.4739 12.6469 9.01278 14.7093 5.31457C15.1748 4.48053 15.608 3.4202 15.7567 2.76073C15.8214 2.48918 15.899 2.26289 15.9313 2.26289C16.1123 2.26289 17.8774 3.70468 19.2157 4.93311C21.22 6.78868 23.6251 9.4589 24.3105 10.6033C25.0734 11.877 25.0217 13.0601 24.123 14.8252C22.5454 17.9221 18.5757 21.8983 15.4852 23.4694C13.7072 24.3746 12.4982 24.4328 11.2568 23.6763C9.49821 22.6031 5.15346 18.3553 3.34314 15.9372C2.15351 14.3403 2.10825 13.2153 3.17504 11.1205C3.98322 9.52355 5.06941 8.11409 6.91851 6.27145C8.98098 4.20252 10.5715 3.03228 12.4076 2.21764C12.9831 1.96548 13.3516 1.95902 13.6102 2.19824Z"
            fill="#3B4D61" />
        <path
            d="M16.1964 8.13995C15.5499 8.43089 15.2266 9.19381 15.4917 9.81449C15.6986 10.3123 16.2029 10.6679 16.7136 10.6679C17.4765 10.6679 18.0326 10.1119 18.039 9.34898C18.039 8.3921 17.0563 7.74556 16.1964 8.13995Z"
            fill="#3B4D61" />
        <path
            d="M20.8579 9.82742C20.5282 9.99552 20.3859 10.1248 20.1984 10.4416C19.8622 11.0235 19.9592 11.7283 20.4441 12.2132C21.3881 13.1442 22.9592 12.4912 22.9527 11.1722C22.9462 10.5774 22.5777 10.0278 22.0346 9.80156C21.7049 9.65932 21.1682 9.67225 20.8579 9.82742Z"
            fill="#3B4D61" />
        <path
            d="M18.0519 13.8166C18.0067 13.836 17.6899 14.1851 17.3407 14.5989C16.6231 15.4653 16.08 16.0148 15.3882 16.5708C14.5865 17.2174 14.483 17.3273 14.483 17.5601C14.483 17.7217 14.5542 17.8251 14.8386 18.0967C15.6339 18.8531 16.6554 18.9889 17.6963 18.4846C19.1381 17.7928 19.8687 16.0471 19.2351 14.8058C18.8472 14.0429 18.4075 13.6743 18.0519 13.8166Z"
            fill="#3B4D61" />
        <path
            d="M9.54346 14.8381C8.88399 15.0709 8.51546 15.8338 8.74175 16.4933C8.98744 17.2239 9.80855 17.5924 10.5262 17.295C11.399 16.9264 11.5865 15.7821 10.8818 15.1161C10.5133 14.7605 10.0348 14.6635 9.54346 14.8381Z"
            fill="#3B4D61" />
        <path
            d="M11.3537 19.4286C9.78264 19.991 10.1641 22.3057 11.8322 22.3057C13.1447 22.3057 13.7847 20.7346 12.8602 19.7971C12.4464 19.3833 11.8774 19.2411 11.3537 19.4286Z"
            fill="#3B4D61" />
        <path
            d="M28.5583 15.8209C28.1057 16.267 28.0346 16.17 30.6013 18.7303C32.6832 20.8186 32.8966 21.0126 33.097 21.0126C33.3944 21.0126 33.75 20.657 33.75 20.3531C33.75 20.1592 33.5625 19.9523 31.4677 17.8575C28.9074 15.2972 29.0044 15.3683 28.5583 15.8209Z"
            fill="#3B4D61" />
        <path
            d="M22.9527 22.3057C22.5001 22.7582 22.4226 22.6419 24.9764 25.2022C26.2242 26.4565 27.3169 27.4974 27.3945 27.5168C27.7177 27.6008 28.2479 27.0707 28.1638 26.7474C28.1445 26.6698 27.1035 25.5772 25.8492 24.3229C23.2889 21.7755 23.4053 21.8531 22.9527 22.3057Z"
            fill="#3B4D61" />
        <path
            d="M16.4679 27.9112C16.0154 28.3638 15.9442 28.2603 18.511 30.8271C20.5929 32.9089 20.8062 33.1029 21.0067 33.1029C21.3041 33.1029 21.6597 32.7473 21.6597 32.4499C21.6597 32.2495 21.4657 32.0361 19.3774 29.9542C16.8171 27.3875 16.9141 27.4586 16.4679 27.9112Z"
            fill="#3B4D61" />
    </g>
    <defs>
        <clipPath id="clip0_132_119">
            <rect width="33.1029" height="33.1029" fill="white" transform="translate(0.647095)" />
        </clipPath>
    </defs>
</svg>