<svg width="30" height="25" viewBox="0 0 30 25" fill="none" xmlns="http://www.w3.org/2000/svg">
    <path
        d="M29.2848 3.5462C28.2148 4.01528 27.0694 4.338 25.8622 4.48436C27.094 3.74529 28.0358 2.57622 28.4848 1.18352C27.3294 1.85624 26.0513 2.3435 24.6922 2.61895C23.6086 1.45897 22.0595 0.728989 20.3405 0.728989C17.0451 0.728989 14.3742 3.39893 14.3742 6.68977C14.3742 7.16339 14.4315 7.61793 14.5306 8.04883C9.57343 7.81702 5.17898 5.43525 2.23996 1.83715C1.7236 2.71349 1.42997 3.73165 1.42997 4.83981C1.42997 6.9134 2.4854 8.73154 4.08082 9.80061C3.10539 9.77243 2.18723 9.50243 1.3827 9.0579V9.12971C1.3827 12.0215 3.4372 14.4323 6.16441 14.9814C5.66715 15.1132 5.13626 15.1896 4.59718 15.1896C4.21446 15.1896 3.84901 15.1523 3.48447 15.085C4.25173 17.4523 6.44804 19.1759 9.06617 19.2277C7.03076 20.8231 4.45082 21.774 1.67088 21.774C1.19725 21.774 0.724535 21.7513 0.25 21.694C2.90176 23.3849 6.03169 24.3739 9.41252 24.3739C20.3823 24.3739 26.3767 15.2878 26.3767 7.41884C26.3767 7.16794 26.3767 6.91249 26.3576 6.65613C27.5276 5.82251 28.5403 4.76617 29.3403 3.56893L29.2848 3.5462Z"
        fill="#3B4D61" />
</svg>