<svg width="36" height="25" viewBox="0 0 36 25" fill="none" xmlns="http://www.w3.org/2000/svg">
    <path
        d="M34.4184 4.25262C34.0233 2.76481 32.8591 1.59305 31.3809 1.1954C28.7016 0.472824 17.9578 0.472824 17.9578 0.472824C17.9578 0.472824 7.21412 0.472824 4.53474 1.1954C3.05656 1.59312 1.89235 2.76481 1.49722 4.25262C0.779297 6.94936 0.779297 12.5759 0.779297 12.5759C0.779297 12.5759 0.779297 18.2024 1.49722 20.8991C1.89235 22.3869 3.05656 23.5098 4.53474 23.9075C7.21412 24.6301 17.9578 24.6301 17.9578 24.6301C17.9578 24.6301 28.7015 24.6301 31.3809 23.9075C32.8591 23.5098 34.0233 22.3869 34.4184 20.8991C35.1363 18.2024 35.1363 12.5759 35.1363 12.5759C35.1363 12.5759 35.1363 6.94936 34.4184 4.25262ZM14.444 17.6843V7.46742L23.4236 12.576L14.444 17.6843Z"
        fill="#3B4D61" />
</svg>