<?xml version="1.0" encoding="UTF-8"?><svg id="_層_1" xmlns="http://www.w3.org/2000/svg" viewBox="0 0 1080 1080"><defs><style>.cls-1{fill:#3b4d61;}</style></defs><circle class="cls-1" cx="654.24" cy="635.8" r="7"/><path class="cls-1" d="M745.82,782.77c-9.33-12-45.67-236.33-32.33-272.33s48-30,70.67-78.81c15.56-33.51,10.07-57.71,2.08-69.59-.39,1.19-.87,2.47-1.46,3.78-2.67,5.89-5.95,10.16-5.95,10.16,0,0-6.89-1.47-13.29-5.25-9.09-5.37-11.96-8.44-11.96-8.44,0,0,11.62-3.85,18.05-5.26,2.6-.57,5.74-1.06,8.58-1.44-1.72-1.2-3.35-1.82-4.71-1.82-9.33,0-41,2.67-47-2-3.12-2.43-14.08-30.41-25.33-56.22-16.94-38.84-39.39-75.18-46-72.78-11,4-7.44,81.75-7.44,81.75,0,0-9.97,.78-27.64,5.11-17.67,4.33-32.19,13.79-32.19,13.79,0,0-30.73-82.02-45.73-78.17-15,3.85-10.67,116.52-68,205.85-57.33,89.33-200.33,150-189.67,299.33,6.67,93.33,138.22,125.78,260.89,96.44,46.78-15.11,62.11-35.11,72.28-54.11,8.08-15.09,10.51-37.5,10.51-53.51,0-54.08-43.58-97.98-97.53-98.5-54.45-.53-99.38,43.87-99.48,98.32-.03,14.65,3.15,28.56,8.87,41.06-37.56-4.36-59.4-12.56-59.86-26.7v-131.35c0-6.03,4.89-10.91,10.91-10.91h57.3c2.66,0,5.07-1.58,6.12-4.02l11.4-26.35c1.06-2.44,3.46-4.02,6.12-4.02h115.26c2.66,0,5.07,1.58,6.12,4.02l11.4,26.35c1.06,2.44,3.46,4.02,6.12,4.02h57.3c6.03,0,10.91,4.89,10.91,10.91v190.1c0,3.09,.68,6.16,2.05,8.93,9.62,19.42,25.77,26.04,55.37,26.9,7.05,.2,14.17-.17,20.77-1.11-.04-3.6-.5-7.15-2.25-10.37-3.25-6-11.09-10.18-17.69-12.87-2.89-1.18-.37-4.93,2.5-3.76,4.07,1.66,7.84,3.74,11.33,6.21,3.22,2.28,6.32,4.91,8.14,8.22,2.05,3.74,2.66,7.72,2.78,11.76,6.38-1.25,12.07-3.1,16.48-5.56-.35-4.16-1.11-8.29-3.35-11.79-4.31-6.73-11.57-10.03-18.87-13.73-2.76-1.4-.27-5.18,2.5-3.78,8.05,4.08,15.9,7.9,20.64,15.3,2.11,3.3,3.09,7.02,3.62,10.84,3.28-2.92,5.04-6.45,4.66-10.61-3-32.58-34.67-32-44-44Zm-263.24-67.4l21.68-5.78h0l35.03-9.34-12.38-12.41c-1.01-1.01-1.01-2.65,0-3.66h0c1.01-1.01,2.65-1.01,3.66,0l14.49,14.53,26.92,26.98,4.55-16.89c.37-1.39,1.8-2.21,3.19-1.84,1.39,.37,2.21,1.8,1.84,3.19l-5.82,21.63-10.6,39.35c-.28,1.05-1.27,1.85-2.13,2.51-3.36,2.57-15.44,8.53-41.15,10.02-2.22-2.22-18.73-18.77-26.67-26.73l-4.55,16.92c-.37,1.38-1.8,2.2-3.18,1.83-1.38-.37-2.2-1.8-1.83-3.18l5.41-20.08v-.04l.11-.35c.04-.15,.09-.33,.14-.53l.17-.65c1.62-6,6.79-25.22,9.42-34.98l-16.95,4.52c-1.39,.37-2.81-.45-3.18-1.84h0c-.37-1.39,.46-2.81,1.84-3.18Zm201.91-376.99c-11.55,3.16-22.29,19.9-28.16,29.88-7.05-7.27-15.63-16.16-22.6-23.54,0,0-.19-.2-.21-.22-2.16,11.2-4.44,22.41-6.69,33.59l-4.83-2.06c-9.17-3.58-19.75-6.55-29.56-4.82-16.92,4.3-27.8,21.68-34.2,37.04,3.1-16.43,11.64-33.27,26.83-41.53,10.74-5.6,23.81-3.75,35.23-.28,1.96-10.76,3.96-21.5,6.08-32.23l1.72-8.66,5.95,6.45c6.66,7.19,14.33,15.63,21.18,23.27,7.56-10.17,19.21-22.81,31.32-22.44,12.4,1.4,24.15,9.43,33.35,17.41-9.41-5.32-24.56-13.34-35.41-11.86Z"/></svg>