<svg width="37" height="27" viewBox="0 0 37 27" fill="none" xmlns="http://www.w3.org/2000/svg">
    <path fill-rule="evenodd" clip-rule="evenodd"
        d="M25.0276 23.9865L27.038 26.3798C33.7394 26.2841 36.3242 21.7846 36.3242 21.7846C36.3242 11.8282 31.9204 3.88232 31.9204 3.88232C27.4209 0.723099 23.3044 0.723099 23.3044 0.723099L22.8257 1.10603C27.8996 2.44631 31.1545 5.03113 31.0588 5.12686C25.7934 1.10603 12.3907 0.723099 5.88076 5.12686C5.88076 5.12686 8.27411 2.63778 13.8267 1.10603L13.5395 0.723099C13.5395 0.723099 9.42292 0.723099 4.92342 3.88232C4.92342 3.88232 0.519653 11.8282 0.519653 21.7846C0.519653 21.7846 3.10447 26.2841 9.80585 26.3798L12.0077 23.9865C7.98691 22.7419 6.64663 20.2528 6.64663 20.2528C11.912 25.1353 25.5062 24.9438 30.4844 20.2528C30.4844 20.2528 28.9527 22.9334 25.0276 23.9865ZM23.783 18.9125C25.5278 18.9125 26.9422 17.4124 26.9422 15.5619C26.9422 13.7113 25.5278 12.2112 23.783 12.2112C22.0382 12.2112 20.6238 13.7113 20.6238 15.5619C20.6238 17.4124 22.0382 18.9125 23.783 18.9125ZM12.678 18.9126C14.4228 18.9126 15.8372 17.4124 15.8372 15.5619C15.8372 13.7113 14.4228 12.2112 12.678 12.2112C10.9332 12.2112 9.51874 13.7113 9.51874 15.5619C9.51874 17.4124 10.9332 18.9126 12.678 18.9126Z"
        fill="#3B4D61" />
</svg>