<svg width="31" height="25" viewBox="0 0 31 25" fill="none" xmlns="http://www.w3.org/2000/svg">
    <path
        d="M27.3081 0.728989H3.66314C2.03755 0.728989 0.722298 2.05902 0.722298 3.68461L0.70752 21.4183C0.70752 23.0439 2.03755 24.3739 3.66314 24.3739H27.3081C28.9337 24.3739 30.2637 23.0439 30.2637 21.4183V3.68461C30.2637 2.05902 28.9337 0.728989 27.3081 0.728989ZM26.717 7.00967L16.2688 13.5416C15.7959 13.8371 15.1753 13.8371 14.7024 13.5416L4.25426 7.00967C3.88481 6.77323 3.66314 6.37422 3.66314 5.94565C3.66314 4.95552 4.74194 4.3644 5.58429 4.88163L15.4856 11.0736L25.3869 4.88163C26.2293 4.3644 27.3081 4.95552 27.3081 5.94565C27.3081 6.37422 27.0864 6.77323 26.717 7.00967Z"
        fill="#3B4D61" />
</svg>